<?xml version="1.0" encoding="UTF-8" standalone="no"?>
<!-- Created with Inkscape (http://www.inkscape.org/) -->

<svg
   version="1.1"
   id="svg1"
   width="600"
   height="460"
   viewBox="0 0 600 460"
   sodipodi:docname="IMG_9591.png"
   xmlns:inkscape="http://www.inkscape.org/namespaces/inkscape"
   xmlns:sodipodi="http://sodipodi.sourceforge.net/DTD/sodipodi-0.dtd"
   xmlns="http://www.w3.org/2000/svg"
   xmlns:svg="http://www.w3.org/2000/svg">
  <defs
     id="defs1" />
  <sodipodi:namedview
     id="namedview1"
     pagecolor="#ffffff"
     bordercolor="#999999"
     borderopacity="1"
     inkscape:showpageshadow="2"
     inkscape:pageopacity="0"
     inkscape:pagecheckerboard="0"
     inkscape:deskcolor="#d1d1d1"
     inkscape:zoom="0.43562232"
     inkscape:cx="648.49754"
     inkscape:cy="1266.0049"
     inkscape:window-width="1920"
     inkscape:window-height="1027"
     inkscape:window-x="1912"
     inkscape:window-y="-8"
     inkscape:window-maximized="1"
     inkscape:current-layer="g1"
     showguides="true" />
  <g
     inkscape:groupmode="layer"
     inkscape:label="Image"
     id="g1">
    <path
       style="fill:#000000;stroke-width:1.37412"
       d="m 12.259323,447.46884 c -0.494445,-0.77315 3.763249,-8.21884 9.461658,-16.54599 5.69841,-8.3272 18.05883,-26.99272 27.467505,-41.47892 28.189955,-43.40307 52.475474,-80.17531 71.363424,-108.05554 9.81393,-14.4862 20.98023,-31.20105 24.81393,-37.1441 20.34334,-31.53642 29.37722,-45.42588 34.70113,-53.35243 3.24322,-4.82873 12.80552,-19.41624 21.24934,-32.41667 8.44396,-13.00044 23.82238,-36.09731 34.17439,-51.32639 10.352,-15.229085 28.83426,-43.036498 41.07166,-61.794278 C 290.94,23.316346 299.62594,11.24949 301.11181,11.24949 c 1.41569,0 6.19576,6.547524 13.20267,16.546008 18.76524,26.776955 36.83629,56.130196 55.74902,84.080742 12.90395,19.0352 55.75155,84.64842 69.44504,106.34247 3.28753,5.20828 24.11131,37.10681 50.71057,77.67992 5.47544,8.35202 12.9027,19.59655 16.50505,24.98785 3.6023,5.39117 12.32152,18.91946 19.37609,30.0627 21.03587,33.22814 27.67734,43.40834 44.49927,68.21006 8.81763,13.00041 16.08033,24.80237 16.13957,26.22669 0.10067,2.42574 -0.90232,2.56835 -15.86113,2.25539 C 550.6998,449.11077 541.44188,440.917 524.02862,431.33196 488.71576,413.06368 387.95864,364.71611 372.212,358.48374 360.53937,353.86368 351.63856,346.9538 312.39764,312.04753 l -22.4745,-19.99203 -3.91338,2.09101 c -2.15241,1.14998 -8.63142,5.322 -14.39792,9.27117 -13.72983,9.40285 -41.74086,27.78786 -83.17724,54.59304 -36.46687,23.59044 -69.15496,45.51704 -106.2432,71.26629 -13.070709,9.07466 -25.139103,17.19637 -26.818444,18.04838 -3.94106,1.99944 -41.8457,2.12559 -43.113633,0.14345 z m 45.765522,-6.20453 c 3.208544,-1.95702 11.531163,-7.61213 18.494845,-12.56703 26.58288,-18.91431 67.83741,-46.58073 123.09841,-82.55307 31.52347,-20.5203 64.34563,-41.96555 72.93819,-47.65603 8.59256,-5.69048 16.45596,-10.337 17.47421,-10.32566 1.01826,0.0135 10.06306,7.45719 20.0994,16.54601 37.75814,34.19353 52.54915,46.10948 61.43444,49.49309 12.08055,4.60045 119.53602,55.83947 148.70988,70.91068 40.92851,21.14374 37.59078,19.87126 50.95466,19.42553 l 11.71594,-0.39075 -12.02837,-17.61254 c -16.62974,-24.3499 -24.46435,-36.27925 -37.22178,-56.67566 -6.0406,-9.65746 -23.54015,-36.70511 -38.88807,-60.1059 C 479.45863,286.35219 459.52672,255.96157 450.51339,242.21825 441.50004,228.47494 421.54225,197.7804 406.16271,174.00817 383.7612,139.38217 303.32838,17.499669 301.55062,15.486012 c -0.48257,-0.546659 -3.33912,3.693906 -34.44992,51.141959 -11.93376,18.200605 -29.79758,45.062679 -39.69749,59.693669 -17.83739,26.36178 -26.98284,40.26906 -65.99911,100.36363 -11.09334,17.08628 -30.30896,46.06395 -42.70153,64.3949 -25.6239,37.90263 -33.076023,49.36341 -32.900439,50.59875 0.0671,0.47519 -0.445664,1.23592 -1.14044,1.69043 -1.101991,0.7207 -7.764557,10.74743 -42.732415,64.30897 -3.879971,5.94308 -10.600835,15.97198 -14.934998,22.28647 -4.334301,6.31449 -8.351134,12.24067 -8.926247,13.16926 -0.814295,1.31477 2.845361,1.68839 16.538715,1.68839 16.58764,0 17.91526,-0.20168 23.418099,-3.55813 z M 477.67205,383.65624 c -47.43547,-36.4627 -112.88939,-89.28673 -121.90174,-98.37987 -5.4391,-5.48788 -35.18231,-41.61747 -51.30695,-62.32375 -3.84433,-4.93666 -7.30911,-9.00346 -7.69941,-9.03737 -0.81304,-0.0703 -14.64325,15.51328 -32.57696,36.70769 -6.77454,8.00638 -13.21261,14.55711 -14.30677,14.55711 -1.09403,0 -4.03403,-1.76522 -6.53326,-3.92282 l -4.54399,-3.92282 -5.613,4.78457 c -3.08734,2.63156 -8.7585,7.61765 -12.60282,11.08029 -3.84433,3.46263 -22.80804,20.0936 -42.1415,36.95769 -30.93537,26.98434 -39.63781,33.4914 -39.63781,29.63899 0,-0.56273 8.96427,-14.17798 19.92061,-30.25625 10.95633,-16.07826 22.21712,-32.78865 25.02404,-37.13411 8.25454,-12.77932 27.76596,-42.62467 31.21411,-47.74637 1.7505,-2.60008 11.53075,-17.49149 21.734,-33.09201 22.3171,-34.12246 24.02509,-36.71566 40.03301,-60.78125 6.9181,-10.40036 14.67791,-22.10075 17.24411,-26.00088 2.56619,-3.90013 5.42414,-7.09114 6.35097,-7.09114 0.92682,0 4.82358,4.71054 8.65938,10.46788 3.8358,5.75734 14.71384,22.01632 24.17354,36.13108 9.4597,14.11476 36.80293,55.1421 60.76272,91.17188 23.95981,36.02977 50.80382,76.14539 59.65319,89.14584 41.64662,61.18174 47.88548,70.92305 46.65516,72.84657 -0.50716,0.79291 -1.35681,1.42029 -1.88807,1.39434 -0.53136,-0.0258 -9.83391,-6.86396 -20.67256,-15.19529 z m 11.16996,0.15695 c -5.03315,-7.70372 -18.48226,-27.64886 -40.78634,-60.48695 -10.31916,-15.19261 -26.02512,-38.5934 -34.9023,-52.00174 -8.87731,-13.40835 -20.79234,-31.36867 -26.4779,-39.91181 -5.68554,-8.54314 -15.18593,-22.82039 -21.11192,-31.72727 -5.926,-8.90688 -17.1928,-25.62173 -25.03761,-37.1441 -7.84466,-11.52237 -19.66674,-29.28751 -26.27128,-39.47796 -6.60442,-10.19045 -12.53488,-18.84273 -13.17877,-19.22714 -0.64375,-0.38441 -4.50486,4.30628 -8.58026,10.42399 -4.07526,6.11756 -10.84911,16.28938 -15.05313,22.60387 -4.20401,6.31449 -9.67065,14.51997 -12.1482,18.23437 -11.10759,16.65325 -28.78716,43.62082 -41.61841,63.48265 -18.53623,28.69293 -53.91689,82.12506 -64.26329,97.05118 -8.68496,12.52906 -7.89402,13.42916 2.95677,3.36485 3.57173,-3.31285 12.47029,-11.12013 19.77452,-17.3494 7.30422,-6.22927 22.29276,-19.26212 33.30794,-28.962 11.01533,-9.69974 20.82856,-18.07081 21.80754,-18.60244 1.0272,-0.55784 4.1625,0.7264 7.41465,3.03731 l 5.63494,4.00386 5.37074,-6.41404 c 23.82979,-28.45873 38.83203,-44.90883 40.95619,-44.90883 1.35334,0 4.38925,2.5832 6.74645,5.74044 2.3572,3.15725 12.27305,15.46546 22.03511,27.35156 9.76209,11.88612 20.77265,25.5619 24.46811,30.39063 3.69529,4.82874 11.92676,13.03421 18.29185,18.23438 6.36523,5.20017 16.0219,13.12713 21.45945,17.61548 5.43742,4.48823 17.43507,14.10408 26.66146,21.36828 9.22637,7.26429 26.44588,20.91468 38.26558,30.33425 19.36689,15.43416 36.61687,28.55545 37.58998,28.59317 0.20184,0.0133 -1.28851,-2.51972 -3.31187,-5.61659 z"
       id="path1"
       sodipodi:nodetypes="sssssssssssssssssssssscsssssssssscsssscsssssssssssssssssssscssscsssssssssssssssssssssssssssssssssssscssssssssscs"
       inkscape:label="Oros Logo" />
    <path
       style="stroke-width:0;fill:none;"
       d="m 19.725175,443.71192 c -0.666681,-0.42382 3.786823,-7.72894 14.217584,-23.32122 8.353589,-12.48726 23.76455,-35.81076 34.246578,-51.83002 10.482029,-16.01926 34.003993,-51.62844 52.271033,-79.13152 18.26704,-27.50307 44.41792,-67.17104 58.11307,-88.15104 13.69514,-20.98 45.27137,-68.82413 70.1694,-106.320297 24.89803,-37.496166 46.77389,-70.44592 48.61304,-73.221675 1.83913,-2.775756 3.61829,-5.058396 3.95366,-5.072534 0.80414,-0.0339 55.11912,82.004251 106.91351,161.483756 38.96714,59.79584 58.28874,89.39032 83.1911,127.42203 13.29883,20.31043 30.57422,46.97166 38.38975,59.24719 16.28995,25.58597 30.14267,46.6556 43.02183,65.43506 l 8.97486,13.08653 -3.70529,0.50786 c -7.42132,1.01721 -15.57166,0.55224 -20.75095,-1.18383 -2.77581,-0.93043 -16.36882,-7.48183 -30.20669,-14.55866 -34.4668,-17.62668 -118.09365,-57.80282 -147.97847,-71.09204 -17.04571,-7.57992 -23.72341,-12.54164 -57.76348,-42.91987 -10.04362,-8.96318 -21.13326,-18.65125 -24.64365,-21.52904 l -6.38252,-5.23234 -4.93795,2.69284 c -12.23427,6.67177 -162.81798,105.95669 -201.024637,132.54232 -25.00394,17.39867 -29.383736,20.18663 -33.049773,21.03777 -3.761246,0.87326 -30.285985,0.96443 -31.632005,0.10873 z M 500.51849,397.55239 c 0.8079,-2.10536 -2.56666,-7.79177 -20.27685,-34.16806 C 471.21658,349.94306 428.35076,285.87449 384.98426,221.00976 341.61777,156.14502 304.86187,101.61299 303.3045,99.827455 l -2.8316,-3.246422 -1.82474,1.623211 c -2.2334,1.986756 -27.57223,39.929256 -72.62902,108.755116 -18.70235,28.5685 -45.86631,69.65459 -60.36437,91.3024 -14.49805,21.64781 -26.51746,40.18285 -26.7098,41.18897 -1.20362,6.29634 9.18758,-1.92537 70.4492,-55.74074 15.40021,-13.52833 28.48099,-24.78405 29.06839,-25.01269 0.5874,-0.22865 2.2309,0.68736 3.65222,2.03559 1.42132,1.34822 3.8166,3.07289 5.32283,3.8326 l 2.73862,1.38128 4.04449,-3.92814 c 2.22447,-2.16048 10.67049,-11.58313 18.76893,-20.93922 19.18717,-22.16688 23.24499,-26.50641 24.22137,-25.90296 0.4441,0.27447 5.77608,6.75541 11.84884,14.40209 13.52334,17.0283 31.3796,38.80787 40.51067,49.41154 7.47677,8.68256 23.53417,22.43286 64.75399,55.45027 48.0071,38.45408 81.97254,64.44621 84.22952,64.45685 0.79518,0.004 1.67918,-0.60141 1.96445,-1.34481 z"
       id="path7" />
  </g>
</svg>
